<mxfile host="app.diagrams.net" agent="Mozilla/5.0 (Windows NT 10.0; Win64; x64) AppleWebKit/537.36 (KHTML, like Gecko) Chrome/129.0.0.0 Safari/537.36" version="24.8.0">
  <diagram name="Page-1" id="QuXw6sldqD08OVTo49CA">
    <mxGraphModel dx="1498" dy="1097" grid="1" gridSize="10" guides="1" tooltips="1" connect="1" arrows="1" fold="1" page="1" pageScale="1" pageWidth="850" pageHeight="1100" math="0" shadow="0">
      <root>
        <mxCell id="0" />
        <mxCell id="1" parent="0" />
        <mxCell id="K3LhHRipR_20qgbg90d2-1" value="" style="strokeWidth=1;shadow=0;dashed=0;align=center;html=1;shape=mxgraph.mockup.containers.browserWindow;rSize=0;strokeColor=#666666;strokeColor2=#008cff;strokeColor3=#c4c4c4;mainText=,;recursiveResize=0;" vertex="1" parent="1">
          <mxGeometry x="40" y="120" width="760" height="940" as="geometry" />
        </mxCell>
        <mxCell id="K3LhHRipR_20qgbg90d2-2" value="DineScout" style="strokeWidth=1;shadow=0;dashed=0;align=center;html=1;shape=mxgraph.mockup.containers.anchor;fontSize=17;fontColor=#666666;align=left;whiteSpace=wrap;" vertex="1" parent="K3LhHRipR_20qgbg90d2-1">
          <mxGeometry x="60" y="12" width="110" height="26" as="geometry" />
        </mxCell>
        <mxCell id="K3LhHRipR_20qgbg90d2-3" value="https://www.dinescout.com/food_list" style="strokeWidth=1;shadow=0;dashed=0;align=center;html=1;shape=mxgraph.mockup.containers.anchor;rSize=0;fontSize=17;fontColor=#666666;align=left;" vertex="1" parent="K3LhHRipR_20qgbg90d2-1">
          <mxGeometry x="130" y="60" width="250" height="26" as="geometry" />
        </mxCell>
        <mxCell id="K3LhHRipR_20qgbg90d2-4" value="" style="strokeWidth=1;shadow=0;dashed=0;align=center;html=1;shape=mxgraph.mockup.forms.rrect;rSize=0;strokeColor=#999999;fillColor=#ffffff;" vertex="1" parent="K3LhHRipR_20qgbg90d2-1">
          <mxGeometry x="180" y="110" width="420" height="830" as="geometry" />
        </mxCell>
        <mxCell id="K3LhHRipR_20qgbg90d2-5" value="&lt;div&gt;&lt;b&gt;Restaurant&lt;/b&gt;&lt;/div&gt;&lt;div&gt;&lt;b&gt;Food List&lt;/b&gt;&lt;/div&gt;" style="strokeWidth=1;shadow=0;dashed=0;align=center;html=1;shape=mxgraph.mockup.forms.anchor;fontSize=12;fontColor=#666666;align=left;resizeWidth=1;spacingLeft=0;" vertex="1" parent="K3LhHRipR_20qgbg90d2-4">
          <mxGeometry width="273" height="40" relative="1" as="geometry">
            <mxPoint x="172" y="152" as="offset" />
          </mxGeometry>
        </mxCell>
        <mxCell id="K3LhHRipR_20qgbg90d2-6" value="" style="strokeWidth=1;shadow=0;dashed=0;align=center;html=1;shape=mxgraph.mockup.forms.rrect;rSize=0;strokeColor=#999999;fontColor=#666666;align=left;spacingLeft=5;resizeWidth=1;" vertex="1" parent="K3LhHRipR_20qgbg90d2-4">
          <mxGeometry width="315" height="140" relative="1" as="geometry">
            <mxPoint x="54" y="204" as="offset" />
          </mxGeometry>
        </mxCell>
        <mxCell id="K3LhHRipR_20qgbg90d2-7" value="&lt;span style=&quot;font-size: 16px;&quot;&gt;Restaurant&lt;/span&gt;" style="strokeWidth=1;shadow=0;dashed=0;align=center;html=1;shape=mxgraph.mockup.forms.anchor;fontSize=12;fontColor=#666666;align=left;resizeWidth=1;spacingLeft=0;" vertex="1" parent="K3LhHRipR_20qgbg90d2-4">
          <mxGeometry width="70" height="20" relative="1" as="geometry">
            <mxPoint x="172" y="315" as="offset" />
          </mxGeometry>
        </mxCell>
        <mxCell id="K3LhHRipR_20qgbg90d2-8" value="" style="ellipse;whiteSpace=wrap;html=1;aspect=fixed;" vertex="1" parent="K3LhHRipR_20qgbg90d2-4">
          <mxGeometry x="163.98000000000002" y="63.303030303030305" width="80" height="80" as="geometry" />
        </mxCell>
        <mxCell id="K3LhHRipR_20qgbg90d2-9" value="Logo" style="text;strokeColor=none;fillColor=none;html=1;fontSize=24;fontStyle=1;verticalAlign=middle;align=center;" vertex="1" parent="K3LhHRipR_20qgbg90d2-4">
          <mxGeometry x="100" y="80.61" width="210" height="45.39" as="geometry" />
        </mxCell>
        <mxCell id="K3LhHRipR_20qgbg90d2-10" value="" style="verticalLabelPosition=bottom;shadow=0;dashed=0;align=center;html=1;verticalAlign=top;strokeWidth=1;shape=mxgraph.mockup.graphics.simpleIcon;strokeColor=#999999;" vertex="1" parent="K3LhHRipR_20qgbg90d2-4">
          <mxGeometry x="142.5" y="217" width="137.5" height="93" as="geometry" />
        </mxCell>
        <mxCell id="K3LhHRipR_20qgbg90d2-11" value="User Account" style="strokeWidth=1;shadow=0;dashed=0;align=center;html=1;shape=mxgraph.mockup.forms.rrect;rSize=5;strokeColor=none;fontColor=#ffffff;fillColor=#66bbff;fontSize=16;fontStyle=1;" vertex="1" parent="K3LhHRipR_20qgbg90d2-4">
          <mxGeometry x="290" y="10" width="120" height="30" as="geometry" />
        </mxCell>
        <mxCell id="K3LhHRipR_20qgbg90d2-12" value="&lt;span style=&quot;font-size: 16px;&quot;&gt;[List Cont.]&lt;/span&gt;" style="strokeWidth=1;shadow=0;dashed=0;align=center;html=1;shape=mxgraph.mockup.forms.anchor;fontSize=12;fontColor=#666666;align=left;resizeWidth=1;spacingLeft=0;" vertex="1" parent="K3LhHRipR_20qgbg90d2-4">
          <mxGeometry x="183.25" y="791" width="70" height="20" as="geometry" />
        </mxCell>
        <mxCell id="K3LhHRipR_20qgbg90d2-13" value="" style="strokeWidth=1;shadow=0;dashed=0;align=center;html=1;shape=mxgraph.mockup.forms.rrect;rSize=0;strokeColor=#999999;fontColor=#666666;align=left;spacingLeft=5;resizeWidth=1;" vertex="1" parent="1">
          <mxGeometry x="274" y="590" width="315" height="420" as="geometry" />
        </mxCell>
        <mxCell id="K3LhHRipR_20qgbg90d2-14" value="" style="verticalLabelPosition=bottom;shadow=0;dashed=0;align=center;html=1;verticalAlign=top;strokeWidth=1;shape=mxgraph.mockup.graphics.simpleIcon;strokeColor=#999999;" vertex="1" parent="1">
          <mxGeometry x="374.75" y="647" width="117.5" height="76" as="geometry" />
        </mxCell>
        <mxCell id="K3LhHRipR_20qgbg90d2-15" value="&lt;div&gt;&lt;b&gt;Name: Food Name&lt;/b&gt;&lt;/div&gt;&lt;div&gt;&lt;b&gt;Desc: Description here&lt;/b&gt;&lt;/div&gt;&lt;div&gt;&lt;b&gt;Price: $ Price in dollars here&lt;/b&gt;&lt;/div&gt;&lt;div&gt;&lt;br&gt;&lt;/div&gt;&lt;div&gt;&lt;b&gt;Average Review: 4.2 stars&lt;/b&gt;&lt;/div&gt;" style="strokeWidth=1;shadow=0;dashed=0;align=center;html=1;shape=mxgraph.mockup.forms.anchor;fontSize=12;fontColor=#666666;align=left;resizeWidth=1;spacingLeft=0;perimeterSpacing=5;" vertex="1" parent="1">
          <mxGeometry x="294.75" y="774" width="273" height="40" as="geometry" />
        </mxCell>
        <mxCell id="K3LhHRipR_20qgbg90d2-16" value="&lt;span style=&quot;font-size: 16px;&quot;&gt;Food Item #1&lt;/span&gt;" style="strokeWidth=1;shadow=0;dashed=0;align=center;html=1;shape=mxgraph.mockup.forms.anchor;fontSize=12;fontColor=#666666;align=left;resizeWidth=1;spacingLeft=0;" vertex="1" parent="1">
          <mxGeometry x="389.25" y="735" width="70" height="20" as="geometry" />
        </mxCell>
        <mxCell id="K3LhHRipR_20qgbg90d2-17" value="" style="rounded=0;whiteSpace=wrap;html=1;" vertex="1" parent="1">
          <mxGeometry x="294.75" y="843" width="275.25" height="70" as="geometry" />
        </mxCell>
        <mxCell id="K3LhHRipR_20qgbg90d2-18" value="&lt;div&gt;&lt;b&gt;Name: User Name&lt;/b&gt;&lt;/div&gt;&lt;div&gt;&lt;b&gt;Feedback: Feedback listed here&lt;/b&gt;&lt;/div&gt;&lt;div&gt;&lt;br&gt;&lt;/div&gt;&lt;div&gt;&lt;b&gt;User Review: 3.4&lt;/b&gt;&lt;/div&gt;" style="strokeWidth=1;shadow=0;dashed=0;align=center;html=1;shape=mxgraph.mockup.forms.anchor;fontSize=12;fontColor=#666666;align=left;resizeWidth=1;spacingLeft=0;perimeterSpacing=5;" vertex="1" parent="1">
          <mxGeometry x="297" y="859" width="273" height="40" as="geometry" />
        </mxCell>
        <mxCell id="K3LhHRipR_20qgbg90d2-19" value="" style="rounded=0;whiteSpace=wrap;html=1;" vertex="1" parent="1">
          <mxGeometry x="294.75" y="923" width="275.25" height="70" as="geometry" />
        </mxCell>
        <mxCell id="K3LhHRipR_20qgbg90d2-20" value="&lt;div&gt;&lt;b&gt;Name: User Name&lt;/b&gt;&lt;/div&gt;&lt;div&gt;&lt;b&gt;Feedback: Feedback listed here&lt;/b&gt;&lt;/div&gt;&lt;div&gt;&lt;br&gt;&lt;/div&gt;&lt;div&gt;&lt;b&gt;User Review: 3.4&lt;/b&gt;&lt;/div&gt;" style="strokeWidth=1;shadow=0;dashed=0;align=center;html=1;shape=mxgraph.mockup.forms.anchor;fontSize=12;fontColor=#666666;align=left;resizeWidth=1;spacingLeft=0;perimeterSpacing=5;" vertex="1" parent="1">
          <mxGeometry x="297" y="939" width="273" height="40" as="geometry" />
        </mxCell>
        <mxCell id="K3LhHRipR_20qgbg90d2-21" value="Review" style="strokeWidth=1;shadow=0;dashed=0;align=center;html=1;shape=mxgraph.mockup.forms.rrect;rSize=5;strokeColor=none;fontColor=#ffffff;fillColor=#66bbff;fontSize=16;fontStyle=1;" vertex="1" parent="1">
          <mxGeometry x="480" y="603" width="99.25" height="30" as="geometry" />
        </mxCell>
      </root>
    </mxGraphModel>
  </diagram>
</mxfile>
